<mxfile host="Electron" modified="2023-12-27T15:25:01.388Z" agent="Mozilla/5.0 (Macintosh; Intel Mac OS X 10_15_7) AppleWebKit/537.36 (KHTML, like Gecko) draw.io/21.8.2 Chrome/114.0.5735.289 Electron/25.8.1 Safari/537.36" etag="g6cOI8D3oCOplvFWNVk2" version="21.8.2" type="device" pages="2">
  <diagram name="cache" id="JpAfzz7j-SoXWb_nFYmd">
    <mxGraphModel dx="1642" dy="904" grid="0" gridSize="10" guides="1" tooltips="1" connect="1" arrows="1" fold="1" page="0" pageScale="1" pageWidth="1169" pageHeight="827" math="0" shadow="0">
      <root>
        <mxCell id="0" />
        <mxCell id="1" parent="0" />
        <mxCell id="HdYzrEBk9OOqJBON_pum-22" value="Cache" style="html=1;whiteSpace=wrap;fontSize=16;fillColor=#d5e8d4;strokeColor=#82b366;" vertex="1" parent="1">
          <mxGeometry x="-187" y="444" width="110" height="50" as="geometry" />
        </mxCell>
        <mxCell id="HdYzrEBk9OOqJBON_pum-23" value="CacheOperations" style="html=1;whiteSpace=wrap;fontSize=16;" vertex="1" parent="1">
          <mxGeometry x="7" y="347" width="166" height="50" as="geometry" />
        </mxCell>
        <mxCell id="HdYzrEBk9OOqJBON_pum-24" value="iterates" style="endArrow=open;endSize=12;html=1;rounded=0;fontSize=12;curved=1;" edge="1" parent="1" source="HdYzrEBk9OOqJBON_pum-23" target="HdYzrEBk9OOqJBON_pum-25">
          <mxGeometry width="160" relative="1" as="geometry">
            <mxPoint x="-60" y="583" as="sourcePoint" />
            <mxPoint x="-94" y="776" as="targetPoint" />
          </mxGeometry>
        </mxCell>
        <mxCell id="HdYzrEBk9OOqJBON_pum-25" value="Cache" style="html=1;whiteSpace=wrap;fontSize=16;fillColor=#dae8fc;strokeColor=#6c8ebf;" vertex="1" parent="1">
          <mxGeometry x="60" y="444" width="110" height="50" as="geometry" />
        </mxCell>
        <mxCell id="HdYzrEBk9OOqJBON_pum-36" value="StandardQueryCache" style="html=1;whiteSpace=wrap;fontSize=16;" vertex="1" parent="1">
          <mxGeometry x="-139" y="242" width="255" height="50" as="geometry" />
        </mxCell>
        <mxCell id="HdYzrEBk9OOqJBON_pum-37" value="uses" style="endArrow=open;endSize=12;html=1;rounded=0;fontSize=12;curved=1;" edge="1" parent="1" source="HdYzrEBk9OOqJBON_pum-36" target="HdYzrEBk9OOqJBON_pum-23">
          <mxGeometry width="160" relative="1" as="geometry">
            <mxPoint x="-123" y="671" as="sourcePoint" />
            <mxPoint x="77" y="549" as="targetPoint" />
          </mxGeometry>
        </mxCell>
        <mxCell id="HdYzrEBk9OOqJBON_pum-38" value="uses" style="endArrow=open;endSize=12;html=1;rounded=0;fontSize=12;curved=1;" edge="1" parent="1" source="HdYzrEBk9OOqJBON_pum-36" target="HdYzrEBk9OOqJBON_pum-22">
          <mxGeometry width="160" relative="1" as="geometry">
            <mxPoint x="-51" y="435" as="sourcePoint" />
            <mxPoint x="-107" y="499" as="targetPoint" />
          </mxGeometry>
        </mxCell>
        <mxCell id="HdYzrEBk9OOqJBON_pum-40" value="" style="endArrow=open;endFill=1;endSize=12;html=1;rounded=0;fontSize=12;curved=1;" edge="1" parent="1" source="HdYzrEBk9OOqJBON_pum-22" target="HdYzrEBk9OOqJBON_pum-25">
          <mxGeometry width="160" relative="1" as="geometry">
            <mxPoint x="192" y="710" as="sourcePoint" />
            <mxPoint x="352" y="710" as="targetPoint" />
          </mxGeometry>
        </mxCell>
        <mxCell id="HdYzrEBk9OOqJBON_pum-41" value="&lt;font style=&quot;font-size: 12px;&quot;&gt;uses&lt;/font&gt;" style="edgeLabel;html=1;align=center;verticalAlign=middle;resizable=0;points=[];fontSize=16;" vertex="1" connectable="0" parent="HdYzrEBk9OOqJBON_pum-40">
          <mxGeometry x="-0.0219" relative="1" as="geometry">
            <mxPoint x="-4" y="-3" as="offset" />
          </mxGeometry>
        </mxCell>
        <mxCell id="HdYzrEBk9OOqJBON_pum-59" value="Hazelcast" style="rounded=0;whiteSpace=wrap;html=1;fontSize=16;fillColor=#f8cecc;strokeColor=#b85450;" vertex="1" parent="1">
          <mxGeometry x="260" y="405" width="120" height="32" as="geometry" />
        </mxCell>
        <mxCell id="HdYzrEBk9OOqJBON_pum-60" value="Spring" style="rounded=0;whiteSpace=wrap;html=1;fontSize=16;fillColor=#d5e8d4;strokeColor=#82b366;" vertex="1" parent="1">
          <mxGeometry x="260" y="341" width="120" height="32" as="geometry" />
        </mxCell>
        <mxCell id="HdYzrEBk9OOqJBON_pum-61" value="javax.cache" style="rounded=0;whiteSpace=wrap;html=1;fontSize=16;fillColor=#dae8fc;strokeColor=#6c8ebf;" vertex="1" parent="1">
          <mxGeometry x="260" y="373" width="120" height="32" as="geometry" />
        </mxCell>
        <mxCell id="HdYzrEBk9OOqJBON_pum-62" value="Jmix" style="rounded=0;whiteSpace=wrap;html=1;fontSize=16;" vertex="1" parent="1">
          <mxGeometry x="260" y="309" width="120" height="32" as="geometry" />
        </mxCell>
        <mxCell id="pAL80O0McHAHkgHk_y60-1" value="Legend" style="text;html=1;strokeColor=none;fillColor=none;align=center;verticalAlign=middle;whiteSpace=wrap;rounded=0;fontSize=16;" vertex="1" parent="1">
          <mxGeometry x="260" y="279" width="60" height="30" as="geometry" />
        </mxCell>
        <mxCell id="jSr8dPOqDOhEEACZ9KJT-2" value="ICache&lt;br&gt;implementation" style="html=1;whiteSpace=wrap;fontSize=16;fillColor=#f8cecc;strokeColor=#b85450;" vertex="1" parent="1">
          <mxGeometry x="38" y="541" width="154" height="50" as="geometry" />
        </mxCell>
        <mxCell id="fBy2JOWm6JveUE1zclr--1" value="" style="endArrow=block;endFill=0;endSize=12;html=1;rounded=0;fontSize=12;curved=1;dashed=1;" edge="1" parent="1" source="jSr8dPOqDOhEEACZ9KJT-2" target="HdYzrEBk9OOqJBON_pum-25">
          <mxGeometry width="160" relative="1" as="geometry">
            <mxPoint x="242" y="556" as="sourcePoint" />
            <mxPoint x="402" y="556" as="targetPoint" />
          </mxGeometry>
        </mxCell>
      </root>
    </mxGraphModel>
  </diagram>
  <diagram name="messaging" id="4gpbZrzA0C10XtWhumzp">
    <mxGraphModel dx="1642" dy="528" grid="0" gridSize="10" guides="1" tooltips="1" connect="1" arrows="1" fold="1" page="0" pageScale="1" pageWidth="1169" pageHeight="827" math="0" shadow="0">
      <root>
        <mxCell id="G2TPa7quF7ngllj3OAYE-0" />
        <mxCell id="G2TPa7quF7ngllj3OAYE-1" parent="G2TPa7quF7ngllj3OAYE-0" />
        <mxCell id="G2TPa7quF7ngllj3OAYE-7" value="EclipseLinkChannelSupplier" style="html=1;whiteSpace=wrap;fontSize=16;" vertex="1" parent="G2TPa7quF7ngllj3OAYE-1">
          <mxGeometry x="-154" y="569" width="263" height="50" as="geometry" />
        </mxCell>
        <mxCell id="G2TPa7quF7ngllj3OAYE-9" value="SubscribableChannel" style="html=1;whiteSpace=wrap;fontSize=16;fillColor=#d5e8d4;strokeColor=#82b366;" vertex="1" parent="G2TPa7quF7ngllj3OAYE-1">
          <mxGeometry x="-154" y="665" width="264" height="50" as="geometry" />
        </mxCell>
        <mxCell id="G2TPa7quF7ngllj3OAYE-10" value="supplies" style="endArrow=open;endSize=12;html=1;rounded=0;fontSize=12;curved=1;" edge="1" parent="G2TPa7quF7ngllj3OAYE-1" source="G2TPa7quF7ngllj3OAYE-7" target="G2TPa7quF7ngllj3OAYE-9">
          <mxGeometry x="-0.2173" width="160" relative="1" as="geometry">
            <mxPoint x="66.5" y="591" as="sourcePoint" />
            <mxPoint x="267.5" y="657" as="targetPoint" />
            <mxPoint as="offset" />
          </mxGeometry>
        </mxCell>
        <mxCell id="G2TPa7quF7ngllj3OAYE-13" value="ITopic" style="html=1;whiteSpace=wrap;fontSize=16;fillColor=#f8cecc;strokeColor=#b85450;" vertex="1" parent="G2TPa7quF7ngllj3OAYE-1">
          <mxGeometry x="-75.5" y="857" width="110" height="50" as="geometry" />
        </mxCell>
        <mxCell id="G2TPa7quF7ngllj3OAYE-14" value="" style="endArrow=open;endFill=1;endSize=12;html=1;rounded=0;fontSize=12;curved=1;" edge="1" parent="G2TPa7quF7ngllj3OAYE-1" source="krTPjQWoa_Qgoix4-UGo-0" target="G2TPa7quF7ngllj3OAYE-13">
          <mxGeometry width="160" relative="1" as="geometry">
            <mxPoint x="320.4230769230769" y="795" as="sourcePoint" />
            <mxPoint x="1010.5" y="1088.5" as="targetPoint" />
          </mxGeometry>
        </mxCell>
        <mxCell id="fxe-t1mUFMZbXJDgtJvP-0" value="&lt;font style=&quot;font-size: 12px;&quot;&gt;uses&lt;/font&gt;" style="edgeLabel;html=1;align=center;verticalAlign=middle;resizable=0;points=[];fontSize=16;" vertex="1" connectable="0" parent="G2TPa7quF7ngllj3OAYE-14">
          <mxGeometry x="-0.4355" y="-1" relative="1" as="geometry">
            <mxPoint as="offset" />
          </mxGeometry>
        </mxCell>
        <mxCell id="G2TPa7quF7ngllj3OAYE-16" value="Hazelcast" style="rounded=0;whiteSpace=wrap;html=1;fontSize=16;fillColor=#f8cecc;strokeColor=#b85450;" vertex="1" parent="G2TPa7quF7ngllj3OAYE-1">
          <mxGeometry x="197" y="721" width="120" height="32" as="geometry" />
        </mxCell>
        <mxCell id="G2TPa7quF7ngllj3OAYE-17" value="Spring" style="rounded=0;whiteSpace=wrap;html=1;fontSize=16;fillColor=#d5e8d4;strokeColor=#82b366;" vertex="1" parent="G2TPa7quF7ngllj3OAYE-1">
          <mxGeometry x="197" y="689" width="120" height="32" as="geometry" />
        </mxCell>
        <mxCell id="G2TPa7quF7ngllj3OAYE-18" value="Jmix" style="rounded=0;whiteSpace=wrap;html=1;fontSize=16;" vertex="1" parent="G2TPa7quF7ngllj3OAYE-1">
          <mxGeometry x="197" y="657" width="120" height="32" as="geometry" />
        </mxCell>
        <mxCell id="G2TPa7quF7ngllj3OAYE-20" value="Legend" style="text;html=1;strokeColor=none;fillColor=none;align=center;verticalAlign=middle;whiteSpace=wrap;rounded=0;fontSize=16;" vertex="1" parent="G2TPa7quF7ngllj3OAYE-1">
          <mxGeometry x="197" y="627" width="60" height="30" as="geometry" />
        </mxCell>
        <mxCell id="krTPjQWoa_Qgoix4-UGo-0" value="HazelcastMessageChannel" style="html=1;whiteSpace=wrap;fontSize=16;" vertex="1" parent="G2TPa7quF7ngllj3OAYE-1">
          <mxGeometry x="-154" y="761" width="267" height="50" as="geometry" />
        </mxCell>
        <mxCell id="fxe-t1mUFMZbXJDgtJvP-1" value="" style="endArrow=block;dashed=1;endFill=0;endSize=12;html=1;rounded=0;fontSize=12;curved=1;" edge="1" parent="G2TPa7quF7ngllj3OAYE-1" source="krTPjQWoa_Qgoix4-UGo-0" target="G2TPa7quF7ngllj3OAYE-9">
          <mxGeometry width="160" relative="1" as="geometry">
            <mxPoint x="210" y="747" as="sourcePoint" />
            <mxPoint x="370" y="747" as="targetPoint" />
          </mxGeometry>
        </mxCell>
      </root>
    </mxGraphModel>
  </diagram>
</mxfile>
